<?xml version="1.0" encoding="UTF-8"?>
<svg width="85px" height="81px" viewBox="0 0 85 81" version="1.1" xmlns="http://www.w3.org/2000/svg" xmlns:xlink="http://www.w3.org/1999/xlink">
    <!-- Generator: Sketch 57.1 (83088) - https://sketch.com -->
    <title>SvgjsG1024</title>
    <desc>Created with Sketch.</desc>
    <g id="Page-1" stroke="none" stroke-width="1" fill="none" fill-rule="evenodd">
        <g id="color_bgwhite_v" transform="translate(-195.000000, -62.000000)" fill-rule="nonzero">
            <g id="SvgjsG1024" transform="translate(195.000000, 62.065500)">
                <path d="M84.4800339,43.1 C84.5002292,58.1303059 75.4617593,71.6918818 61.5813692,77.4577533 C47.700979,83.2236248 31.7139076,80.0575821 21.0787123,69.4367005 C10.4435169,58.815819 7.2559456,42.8330262 13.0031178,28.9448831 C18.7502899,15.0567401 32.2996805,6 47.33,6 C67.8255886,6.00548878 84.4469077,22.6044374 84.4800339,43.1 Z" id="color_2" fill="#88B9D0"></path>
                <path d="M39.07,0 C17.7739,0 0.51,17.2639 0.51,38.56 C0.51,59.8561 17.7739,77.12 39.07,77.12 C60.3661,77.12 77.63,59.8561 77.63,38.56 C77.6079524,17.2730392 60.3569608,0.0220476209 39.07,0 Z M39.81,74.26 C39.97,72.33 40.08,70.56 40.13,68.93 C49.28,65.53 59.93,57.82 64.01,45.93 C66.4949002,45.8358202 68.5329518,43.9298581 68.7931784,41.4568274 C69.053405,38.9837967 67.4567116,36.6953657 65.04584,36.0860245 C62.6349683,35.4766834 60.1426937,36.7316389 59.196629,39.0313259 C58.2505643,41.3310129 59.1382623,43.9764502 61.28,45.24 C57.61,55.65 48.38,62.58 40.15,65.9 C40.184379,63.619123 39.8707751,61.3463379 39.22,59.16 C47.22,52.3 54.28,44.35 55.35,26.56 C57.7140423,25.9265223 59.255442,23.6546416 58.97041,21.2238502 C58.685378,18.7930589 56.6602206,16.9393888 54.2137593,16.8699856 C51.767298,16.8005825 49.6403094,18.5364612 49.2179294,20.9471841 C48.7955495,23.357907 50.2056729,25.7135189 52.53,26.48 C51.53,42.68 45.22,50.19 37.97,56.48 C37.7,56.01 37.42,55.54 37.13,55.08 C39.81,48.9 43.88,30.52 41.13,17.71 C43.278876,16.525705 44.2328545,13.9437014 43.3702085,11.6467328 C42.5075624,9.34976414 40.0897665,8.03405902 37.6925466,8.5570888 C35.2953268,9.08011858 33.6452986,11.283349 33.8178184,13.7308906 C33.9903383,16.1784322 35.9331141,18.1284167 38.38,18.31 C40.79,29.56 37.54,45.48 35.18,52.31 C34.44,51.31 33.72,50.25 33.1,49.19 C29.87,43.67 26.42,36.76 27.38,31.07 C27.5565153,31.0803437 27.7334847,31.0803437 27.91,31.07 C30.3379088,31.0933857 32.4316895,29.3691415 32.8743576,26.9818138 C33.3170257,24.5944862 31.9806151,22.2342018 29.7057258,21.3855754 C27.4308365,20.536949 24.8750914,21.4453007 23.6460498,23.539279 C22.4170082,25.6332572 22.8699603,28.3075366 24.72,29.88 C23.23,36.55 26.85,44.04 30.72,50.56 C31.46,51.83 32.32,53.02 33.14,54.17 C34.5499681,55.9508953 35.7106484,57.9156412 36.59,60.01 C37.1414492,61.8382657 37.4079086,63.7405832 37.38,65.65 C29.89,62.8 19.22,56.32 16.25,42.24 C18.5296347,41.248062 19.7342093,38.7319218 19.0773515,36.3341701 C18.4204937,33.9364185 16.1017539,32.385481 13.6348554,32.6938433 C11.167957,33.0022056 9.30233215,35.0761887 9.25590117,37.5618514 C9.20947019,40.0475142 10.9963386,42.189724 13.45,42.59 C16.7,58.8 29.18,65.82 37.33,68.7 C37.33,70.28 37.18,72.08 37,74.18 C17.6914635,72.9334023 2.93020322,56.4659579 3.79459498,37.1365395 C4.65898673,17.8071211 20.8312011,2.72298991 40.1739364,3.20483741 C59.5166718,3.68668491 74.9177705,19.5573399 74.8191315,38.9058221 C74.7195411,58.2543044 59.1566567,73.966343 39.81,74.25 L39.81,74.26 Z M63.81,43.11 C62.9498581,43.1181055 62.1700776,42.6056703 61.8362186,41.8129232 C61.5023595,41.0201761 61.6806076,40.1042749 62.2874003,39.4945927 C62.894193,38.8849105 63.8092371,38.7023134 64.6035613,39.0324027 C65.3978854,39.362492 65.9140193,40.1398293 65.9100233,41 C65.8990276,42.1630257 64.9530774,43.1000518 63.79,43.1 L63.81,43.11 Z M54.08,23.9300236 C52.910474,23.9244833 51.966337,22.9728981 51.9699998,21.8033648 C51.9736839,20.6338315 52.92378,19.688196 54.0933176,19.6900235 C55.2628552,19.6918564 56.21,20.6404609 56.21,21.81 C56.21,22.3739959 55.9852776,22.9147472 55.585535,23.312613 C55.1857925,23.7104789 54.6439896,23.9326604 54.08,23.9300236 L54.08,23.9300236 Z M36.6399764,13.44 C36.6455167,12.270474 37.5971019,11.326337 38.7666352,11.3299998 C39.9361685,11.3336839 40.881804,12.28378 40.8799765,13.4533176 C40.8781436,14.6228552 39.9295391,15.57 38.76,15.57 C38.1960041,15.57 37.6552528,15.3452776 37.257387,14.945535 C36.8595211,14.5457925 36.6373396,14.0039896 36.6399764,13.44 L36.6399764,13.44 Z M25.7999764,26.18 C25.8055167,25.010474 26.7571019,24.066337 27.9266352,24.0699998 C29.0961685,24.0736839 30.041804,25.02378 30.0399765,26.1933176 C30.0381436,27.3628552 29.0895391,28.31 27.92,28.31 C27.3560041,28.31 26.8152528,28.0852776 26.417387,27.685535 C26.0195211,27.2857925 25.7973396,26.7439896 25.7999764,26.18 Z M12.09,37.79 C12.09,36.6191563 13.0391563,35.67 14.21,35.67 C15.3808437,35.67 16.33,36.6191563 16.33,37.79 C16.33,38.9608437 15.3808437,39.91 14.21,39.91 C13.041431,39.9045265 12.0954735,38.958569 12.09,37.79 Z" id="color_1" fill="#002646"></path>
            </g>
        </g>
    </g>
</svg>