<svg width="49" height="40" viewBox="0 0 49 40" fill="none" xmlns="http://www.w3.org/2000/svg">
<g clip-path="url(#clip0_535_6302)">
<path fill-rule="evenodd" clip-rule="evenodd" d="M25.0542 12.1465L23.2123 15.3499C23.2027 15.3403 23.2027 15.3403 23.193 15.3209L8.99754 39.9903H0L20.3867 4.5589L20.3867 4.55887C20.4446 4.44274 20.5121 4.30726 20.5892 4.19114C22.8941 0.184418 27.9956 -1.18987 31.988 1.12319C34.7365 2.71039 36.2409 5.62349 36.1638 8.59466C32.2484 6.62033 27.4266 8.03333 25.1989 11.8949C25.1507 11.9723 25.1025 12.0594 25.0542 12.1465ZM30.0593 26.1218L31.8723 22.9667L31.8724 22.9666C31.9302 22.8602 31.9881 22.7538 32.0459 22.657C34.2736 18.7955 39.0955 17.3825 43.0108 19.3568C43.0879 16.3856 41.5835 13.4725 38.8351 11.8853C34.8426 9.57229 29.7411 10.9466 27.4363 14.9533C27.3784 15.0501 27.3302 15.1372 27.282 15.234L13.0479 40.0001H22.0454L30.04 26.1121L30.0593 26.1218ZM36.482 37.8415C40.4745 40.1546 45.576 38.7803 47.8808 34.7736C50.1856 30.7668 48.8162 25.6471 44.8238 23.3341C40.8313 21.021 35.7298 22.3953 33.4249 26.402C33.3789 26.4714 33.345 26.5408 33.3088 26.615L33.3087 26.6151C33.3045 26.6239 33.3002 26.6327 33.2958 26.6416C33.2907 26.652 33.2856 26.6624 33.2803 26.673L25.6136 39.9997H34.6111L36.0191 37.5512C36.1255 37.6351 36.25 37.707 36.3782 37.7811L36.3788 37.7814C36.413 37.8012 36.4475 37.8211 36.482 37.8415Z" fill="#5D13FA"/>
</g>
<defs>
<clipPath id="clip0_535_6302">
<rect width="49" height="40.0001" fill="white"/>
</clipPath>
</defs>
</svg>
