<?xml version="1.0" encoding="UTF-8"?>
<svg width="346px" height="216px" viewBox="0 0 346 216" version="1.1" xmlns="http://www.w3.org/2000/svg" xmlns:xlink="http://www.w3.org/1999/xlink">
    <!-- Generator: Sketch 57.1 (83088) - https://sketch.com -->
    <title>LogoGroup</title>
    <desc>Created with Sketch.</desc>
    <g id="Page-1" stroke="none" stroke-width="1" fill="none" fill-rule="evenodd">
        <g id="Logo" transform="translate(-52.000000, -106.000000)">
            <g id="LogoGroup" transform="translate(52.000000, 107.000000)">
                <path d="M27.7154639,85.4314003 C30.6556848,85.4314003 33.0979284,85.1249441 35.042268,84.5120226 C36.9866077,83.8991011 38.5278294,83.0504533 39.6659794,81.9660537 C40.8041294,80.8816542 41.5865958,79.6558296 42.0134021,78.2885431 C42.4402083,76.9212567 42.6536082,75.5304173 42.6536082,74.115983 C42.6536082,72.3243663 42.131964,70.7213649 41.0886598,69.3069307 C40.0453556,67.8924965 38.7175338,66.6430983 37.1051546,65.5586987 C35.4927754,64.4742992 33.6907316,63.48421 31.6989691,62.5884017 C29.7072065,61.6925934 27.7154739,60.8675191 25.7237113,60.1131542 C23.068028,59.170198 20.31754,58.0858147 17.4721649,56.8599717 C14.6267899,55.6341287 12.0422797,54.0782744 9.7185567,52.1923621 C7.39483374,50.3064498 5.47423439,47.9726683 3.95670103,45.1909477 C2.43916767,42.409227 1.68041237,38.9439151 1.68041237,34.7949081 C1.68041237,26.5911895 4.35976702,20.1791839 9.7185567,15.5586987 C15.0773464,10.9382136 22.4514994,8.62800566 31.8412371,8.62800566 C37.2474497,8.62800566 41.9659592,9.24091796 45.9969072,10.466761 C50.0278552,11.692604 53.4185429,13.0598699 56.1690722,14.5685997 L51.0474227,28.0056577 C48.6762768,26.6855191 46.0443444,25.5539887 43.1515464,24.6110325 C40.2587484,23.6680764 36.9154829,23.1966054 33.1216495,23.1966054 C23.8267576,23.1966054 19.1793814,26.5440495 19.1793814,33.2390382 C19.1793814,34.9363593 19.6536035,36.4214929 20.6020619,37.6944837 C21.5505202,38.9674745 22.7597865,40.099005 24.2298969,41.0891089 C25.7000074,42.0792129 27.3597846,42.9514342 29.2092784,43.7057992 C31.0587721,44.4601641 32.8845271,45.1673706 34.6865979,45.8274399 C37.4371272,46.8646917 40.3061706,48.0197956 43.2938144,49.2927864 C46.2814582,50.5657772 49.0319462,52.2630728 51.5453608,54.3847242 C54.0587755,56.5063755 56.1216414,59.1466132 57.7340206,62.3055163 C59.3463998,65.4644194 60.1525773,69.4483494 60.1525773,74.2574257 C60.1525773,82.4611443 57.4732227,88.8024293 52.114433,93.281471 C46.7556433,97.7605127 38.6227349,100 27.7154639,100 C20.4123346,100 14.5794033,99.2220728 10.2164948,97.6661952 C5.85358643,96.1103175 2.58145421,94.672331 0.4,93.3521924 L5.52164948,79.2079208 C8.08248703,80.7166506 11.1412193,82.1310636 14.6979381,83.4512023 C18.254657,84.7713409 22.5937888,85.4314003 27.7154639,85.4314003 Z M74.8061856,98.1612447 L74.8061856,2.97029703 L92.3051546,5.68434189e-14 L92.3051546,32.2489392 C93.7278422,31.7774611 95.4350416,31.3295636 97.4268041,30.9052334 C99.4185667,30.4809031 101.173188,30.2687412 102.690722,30.2687412 C107.622705,30.2687412 111.748437,30.9995212 115.068041,32.4611033 C118.387645,33.9226853 121.043289,35.9971577 123.035052,38.6845827 C125.026814,41.3720078 126.44948,44.5780106 127.303093,48.3026874 C128.156705,52.0273642 128.583505,56.1527355 128.583505,60.678925 L128.583505,98.1612447 L111.084536,98.1612447 L111.084536,62.9420085 C111.084536,56.7184979 110.373203,52.2395233 108.950515,49.5049505 C107.527828,46.7703777 104.824762,45.4031117 100.841237,45.4031117 C99.2288579,45.4031117 97.640214,45.5917001 96.0752577,45.9688826 C94.5103015,46.3460651 93.253613,46.6760948 92.3051546,46.9589816 L92.3051546,98.1612447 L74.8061856,98.1612447 Z M203.416495,95.3323904 C199.812353,97.0297115 196.421665,98.1848154 193.24433,98.7977369 C190.066994,99.4106584 187.150529,99.7171146 184.494845,99.7171146 C179.942245,99.7171146 176.124758,99.0570552 173.042268,97.7369165 C169.959778,96.4167779 167.493824,94.5073204 165.64433,92.0084866 C163.794836,89.5096528 162.490725,86.4686648 161.731959,82.8854314 C160.973192,79.302198 160.593814,75.2004003 160.593814,70.5799151 L160.593814,46.1103253 L142.098969,46.1103253 L142.098969,31.6831683 L178.092784,31.6831683 L178.092784,72.8429986 C178.092784,76.8034144 178.827828,79.7501082 180.297938,81.6831683 C181.768049,83.6162284 184.210292,84.582744 187.624742,84.582744 C189.237121,84.582744 191.181432,84.370582 193.457732,83.9462518 C195.734032,83.5219215 198.294831,82.6497001 201.140206,81.3295615 L203.416495,95.3323904 Z M217.074227,33.8048091 C220.204139,32.9561485 224.069049,32.1546478 228.669072,31.4002829 C233.269095,30.645918 238.272138,30.2687412 243.678351,30.2687412 C248.989717,30.2687412 253.399982,30.9995212 256.909278,32.4611033 C260.418574,33.9226853 263.192773,35.9971577 265.231959,38.6845827 C267.271144,41.3720078 268.717522,44.5780106 269.571134,48.3026874 C270.424747,52.0273642 270.851546,56.1527355 270.851546,60.678925 L270.851546,98.1612447 L253.352577,98.1612447 L253.352577,62.9420085 C253.352577,56.7184979 252.641244,52.2395233 251.218557,49.5049505 C249.795869,46.7703777 246.903115,45.4031117 242.540206,45.4031117 C241.212364,45.4031117 239.908254,45.4502588 238.627835,45.5445545 C237.347416,45.6388501 235.995883,45.7802914 234.573196,45.9688826 L234.573196,98.1612447 L217.074227,98.1612447 L217.074227,33.8048091 Z M283.65567,65.4879774 C283.65567,59.6416492 284.556692,54.5026153 286.358763,50.0707214 C288.160834,45.6388274 290.531944,41.9377801 293.472165,38.9674682 C296.412386,35.9971563 299.779362,33.757669 303.573196,32.2489392 C307.367029,30.7402093 311.25565,29.9858557 315.239175,29.9858557 C325.103142,29.9858557 332.595851,32.8854024 337.717526,38.6845827 C342.839201,44.4837631 345.4,52.9466676 345.4,64.0735502 C345.4,65.2050976 345.376289,66.3837751 345.328866,67.6096181 C345.281443,68.8354611 345.21031,69.8255502 345.115464,70.5799151 L301.723711,70.5799151 C301.723711,74.9175134 303.525755,78.3356782 307.129897,80.834512 C310.734039,83.3333458 315.381415,84.582744 321.072165,84.582744 C324.581461,84.582744 327.924726,84.2055672 331.102062,83.4512023 C334.279397,82.6968373 336.958752,81.9424837 339.140206,81.1881188 L341.558763,96.039604 C338.523696,97.0768557 335.298986,97.9490771 331.884536,98.6562942 C328.470086,99.3635113 324.628887,99.7171146 320.360825,99.7171146 C314.670075,99.7171146 309.572187,98.9863345 305.06701,97.5247525 C300.561833,96.0631704 296.720634,93.8944038 293.543299,91.0183876 C290.365963,88.1423713 287.92372,84.5827652 286.216495,80.3394625 C284.50927,76.0961598 283.65567,71.1457143 283.65567,65.4879774 Z M328.470103,58.5572843 C328.470103,56.7656676 328.232992,55.0447984 327.758763,53.3946252 C327.284534,51.7444519 326.525778,50.2593182 325.482474,48.9391796 C324.43917,47.619041 323.111348,46.5582313 321.498969,45.7567185 C319.88659,44.9552058 317.894857,44.5544554 315.523711,44.5544554 C313.247411,44.5544554 311.27939,44.9316322 309.619588,45.6859972 C307.959786,46.4403621 306.584542,47.4775983 305.493814,48.7977369 C304.403087,50.1178755 303.549488,51.6265827 302.93299,53.3239038 C302.316492,55.0212249 301.913403,56.7656676 301.723711,58.5572843 L328.470103,58.5572843 Z" id="Shine" fill="#0552B5" fill-rule="nonzero"></path>
                <path d="M43,215 L43,110 L86.0588235,110 C89.3529576,110 92.6941007,110.403112 96.0823529,111.20935 C99.4706052,112.015587 102.599986,113.604324 105.470588,115.97561 C108.341191,118.346895 110.64705,121.856345 112.388235,126.504065 C114.12942,131.151785 115,137.36446 115,145.142276 C115,152.920093 114.105891,159.180193 112.317647,163.922764 C110.529403,168.665335 108.200014,172.293348 105.329412,174.806911 C102.458809,177.320473 99.3529579,179.027773 96.0117647,179.928862 C92.6705715,180.82995 89.4470744,181.280488 86.3411765,181.280488 C84.7411685,181.280488 82.7411885,181.20935 80.3411765,181.067073 C77.9411645,180.924796 75.4470718,180.735096 72.8588235,180.497967 C70.2705753,180.260839 67.8705993,180.023714 65.6588235,179.786585 C63.4470478,179.549457 61.6823595,179.336044 60.3647059,179.146341 L60.3647059,215 L43,215 Z M61,166 L84.3536122,166 C87.0735244,166 89.4651354,165.368711 91.5285171,164.106115 C93.5918988,162.843519 95.1863062,160.785985 96.3117871,157.933453 C97.437268,155.080921 98,151.176284 98,146.219424 C98,141.356091 97.4138208,137.521597 96.2414449,134.715827 C95.0690689,131.910058 93.5215559,129.922668 91.5988593,128.753597 C89.6761628,127.584527 87.4486819,127 84.9163498,127 L61,127 L61,166 Z M131,215 L131,110 L148.634409,110 L148.634409,155.386179 L193.222222,155.386179 L193.222222,110 L211,110 L211,215 L193.222222,215 L193.222222,171.178862 L148.634409,171.178862 L148.634409,215 L131,215 Z M230,215 L230,110 L273.058824,110 C276.352958,110 279.694101,110.403112 283.082353,111.20935 C286.470605,112.015587 289.599986,113.604324 292.470588,115.97561 C295.341191,118.346895 297.64705,121.856345 299.388235,126.504065 C301.12942,131.151785 302,137.36446 302,145.142276 C302,152.920093 301.105891,159.180193 299.317647,163.922764 C297.529403,168.665335 295.200014,172.293348 292.329412,174.806911 C289.458809,177.320473 286.352958,179.027773 283.011765,179.928862 C279.670572,180.82995 276.447074,181.280488 273.341176,181.280488 C271.741168,181.280488 269.741188,181.20935 267.341176,181.067073 C264.941164,180.924796 262.447072,180.735096 259.858824,180.497967 C257.270575,180.260839 254.870599,180.023714 252.658824,179.786585 C250.447048,179.549457 248.68236,179.336044 247.364706,179.146341 L247.364706,215 L230,215 Z M248,166 L271.353612,166 C274.073524,166 276.465135,165.368711 278.528517,164.106115 C280.591899,162.843519 282.186306,160.785985 283.311787,157.933453 C284.437268,155.080921 285,151.176284 285,146.219424 C285,141.356091 284.413821,137.521597 283.241445,134.715827 C282.069069,131.910058 280.521556,129.922668 278.598859,128.753597 C276.676163,127.584527 274.448682,127 271.91635,127 L248,127 L248,166 Z" id="PHP" fill="#0552B5" fill-rule="nonzero"></path>
                <g id="sun" transform="translate(146.000000, 0.000000)" stroke="#FADB5F" stroke-linecap="round" stroke-linejoin="round" stroke-width="2">
                    <path d="M14.34375,0 L14.34375,1.6875 L14.34375,0 Z M14.34375,25.3125 L14.34375,27 L14.34375,25.3125 Z M27,14.34375 L25.3125,14.34375 L27,14.34375 Z M1.6875,14.34375 L0,14.34375 L1.6875,14.34375 Z M23.3777812,23.3777813 L22.1847187,22.1847187 L23.3777812,23.3777813 Z M4.81528125,4.81528125 L3.62221875,3.62221875 L4.81528125,4.81528125 Z M23.3777812,3.62221875 L22.1847187,4.81528125 L23.3777812,3.62221875 Z M4.81528125,22.1847187 L3.62221875,23.3777813 L4.81528125,22.1847187 Z M8.4375,11.390892 C9.87006479,9.07604016 12.7905998,7.94745321 15.5581024,8.63926633 C18.3256051,9.33107944 20.25,11.6707894 20.25,14.34375 C20.25,17.0167106 18.3256051,19.3564206 15.5581024,20.0482337 C12.7905998,20.7400468 9.87006479,19.6114598 8.4375,17.296608 L8.4375,11.390892 Z" id="Shape"></path>
                </g>
            </g>
        </g>
    </g>
</svg>