<svg width="127" height="97" viewBox="0 0 127 97" fill="none" xmlns="http://www.w3.org/2000/svg">
<path d="M120.609 87.3509H102.451V39.1843C102.504 30.8976 95.8293 24.1363 87.5427 24.0843C87.4787 24.0829 87.4147 24.0829 87.3507 24.0843C86.3213 24.1163 85.2987 24.2443 84.2933 24.4656C88.2907 20.4443 93.7227 18.1763 99.3933 18.1589C111.005 18.1589 120.419 27.5723 120.419 39.1843L120.609 87.3509ZM72.4427 39.1843V57.3416C72.4427 68.9536 63.0293 78.3669 51.4173 78.3669C45.7467 78.3496 40.3147 76.0803 36.316 72.0603C37.32 72.2923 38.3453 72.4216 39.3747 72.4416C47.6613 72.4949 54.4213 65.8203 54.4747 57.5336C54.476 57.4696 54.476 57.4056 54.4747 57.3416V39.1843C54.5107 20.8896 69.3693 6.08827 87.664 6.12294C95.3693 6.13761 102.829 8.83894 108.759 13.7616C105.803 12.7603 102.705 12.2429 99.584 12.2336C84.8067 12.0216 72.656 23.8296 72.444 38.6069C72.4413 38.7989 72.4413 38.9909 72.4427 39.1843ZM39.184 90.4096C20.9253 90.3989 6.12666 75.6003 6.116 57.3416V8.98294H24.2747V57.1509C24.3267 72.1189 36.448 84.2403 51.4173 84.2923C54.5373 84.2829 57.636 83.7656 60.592 82.7629C54.5427 87.6896 46.9853 90.3883 39.184 90.4096ZM87.5427 0.000270219C65.9147 0.0309369 48.3907 17.5563 48.3587 39.1843V57.3416C48.3587 62.3029 44.3373 66.3256 39.3747 66.3256C34.4133 66.3256 30.392 62.3043 30.3907 57.3429V3.0576H0V57.3416C0.168 78.9603 17.828 96.3509 39.4467 96.1829C59.7947 96.0256 76.628 80.3069 78.176 60.0176C78.176 59.0616 78.368 58.1069 78.368 57.1509V38.9923C78.368 34.0309 82.3893 30.0096 87.3507 30.0096C92.312 30.0096 96.3347 34.0309 96.3347 38.9923V93.2763H126.535V39.1843C126.567 38.2243 126.503 37.2629 126.344 36.3163C124.985 15.8843 108.019 0.00560355 87.5427 0.000270219Z" fill="#3840D9"/>
</svg>
